<svg width="144" height="42" viewBox="0 0 144 42" fill="none" xmlns="http://www.w3.org/2000/svg">
<rect y="0.00012207" width="143.217" height="42" rx="5.47826" fill="#14171A"/>
<path d="M27.5312 20.1319L21.7656 25.8975C21.4375 26.2256 20.9688 26.4131 20.5 26.4131C19.9844 26.4131 19.5156 26.2256 19.1875 25.8975L13.4219 20.1319C13.1406 19.8506 13 19.4288 13 19.0069C13 18.1631 13.7031 17.4131 14.5469 17.4131H17.5V11.4131C17.5 10.6163 18.1562 9.91315 19 9.91315H22C22.7969 9.91315 23.5 10.6163 23.5 11.4131V17.4131H26.4062C27.25 17.4131 28 18.1631 28 19.0069C28 19.4288 27.8125 19.8506 27.5312 20.1319ZM13 26.4131V29.4131C13 30.2569 13.6562 30.9131 14.5 30.9131H26.5C27.2969 30.9131 28 30.2569 28 29.4131V26.4131C28 25.6163 28.6562 24.9131 29.5 24.9131C30.2969 24.9131 31 25.6163 31 26.4131V29.4131C31 31.8975 28.9844 33.9131 26.5 33.9131H14.5C12.0156 33.9131 10 31.8975 10 29.4131V26.4131C10 25.6163 10.6562 24.9131 11.5 24.9131C12.2969 24.9131 13 25.6163 13 26.4131Z" fill="white"/>
<path d="M47.17 15.9088H49.2244V27.4131H47.17V15.9088ZM51.9432 19.3601H53.8332V20.5105H53.9153C54.0906 20.2695 54.2933 20.0504 54.5234 19.8531C54.7206 19.6888 54.9672 19.5409 55.263 19.4094C55.5588 19.267 55.9039 19.1958 56.2984 19.1958C56.7257 19.1958 57.1256 19.2779 57.4981 19.4423C57.8706 19.5957 58.1939 19.8203 58.4678 20.1161C58.7417 20.4119 58.9553 20.7735 59.1087 21.2008C59.2621 21.6281 59.3388 22.1102 59.3388 22.6471V27.4131H57.4488V22.91C57.4488 22.3184 57.2954 21.8691 56.9886 21.5624C56.6928 21.2446 56.2984 21.0858 55.8053 21.0858C55.2246 21.0858 54.748 21.272 54.3755 21.6445C54.0139 22.0171 53.8332 22.5156 53.8332 23.1401V27.4131H51.9432V19.3601ZM64.1023 27.5775C63.5655 27.5775 63.0943 27.5008 62.6889 27.3474C62.2945 27.194 61.9549 27.0242 61.67 26.8379C61.3413 26.6298 61.0564 26.3832 60.8154 26.0984L62.048 24.8658C62.2123 25.052 62.3986 25.2164 62.6068 25.3588C62.793 25.4793 63.0067 25.5944 63.2477 25.7039C63.4997 25.8025 63.7846 25.8518 64.1023 25.8518C64.5187 25.8518 64.8255 25.7697 65.0227 25.6053C65.2309 25.441 65.3349 25.2492 65.3349 25.0301C65.3349 24.8548 65.2309 24.7124 65.0227 24.6028C64.8145 24.4932 64.557 24.3891 64.2502 24.2905C63.9435 24.1919 63.6038 24.0824 63.2313 23.9618C62.8697 23.8413 62.5355 23.6879 62.2288 23.5017C61.922 23.3154 61.6645 23.0744 61.4563 22.7785C61.2482 22.4827 61.1441 22.1102 61.1441 21.661C61.1441 21.3323 61.2098 21.02 61.3413 20.7242C61.4837 20.4284 61.6864 20.1654 61.9494 19.9353C62.2123 19.7052 62.5301 19.5245 62.9026 19.393C63.2861 19.2615 63.7134 19.1958 64.1845 19.1958C64.6775 19.1958 65.1049 19.2615 65.4664 19.393C65.8389 19.5245 66.1512 19.6669 66.4032 19.8203C66.6881 20.0065 66.9346 20.2092 67.1428 20.4284L65.9102 21.661C65.7787 21.5405 65.6253 21.4309 65.45 21.3323C65.2966 21.2446 65.1103 21.1679 64.8912 21.1022C64.683 21.0365 64.4475 21.0036 64.1845 21.0036C63.812 21.0036 63.5381 21.0748 63.3628 21.2172C63.1984 21.3487 63.1162 21.4966 63.1162 21.661C63.1162 21.8363 63.2203 21.9787 63.4285 22.0883C63.6367 22.1978 63.8942 22.3019 64.2009 22.4005C64.5077 22.4991 64.8419 22.6087 65.2035 22.7292C65.576 22.8498 65.9156 23.0031 66.2224 23.1894C66.5292 23.3757 66.7867 23.6167 66.9949 23.9125C67.203 24.2084 67.3071 24.5809 67.3071 25.0301C67.3071 25.3698 67.2359 25.693 67.0935 25.9998C66.951 26.3065 66.7429 26.5805 66.4689 26.8215C66.195 27.0516 65.8554 27.2378 65.45 27.3803C65.0555 27.5118 64.6063 27.5775 64.1023 27.5775ZM72.2427 27.5775C71.4538 27.5775 70.8293 27.3419 70.3691 26.8708C69.9199 26.3887 69.6953 25.693 69.6953 24.7836V21.3323H68.2162V19.5245H69.0379C69.3228 19.5245 69.5309 19.4587 69.6624 19.3272C69.7939 19.1848 69.8596 18.9492 69.8596 18.6205V16.9771H71.5853V19.5245H73.3931V21.3323H71.5853V24.5371C71.5853 24.9534 71.6784 25.2657 71.8647 25.4738C72.0619 25.6711 72.3249 25.7697 72.6536 25.7697C72.8946 25.7697 73.1192 25.7313 73.3274 25.6546C73.4369 25.6218 73.541 25.5834 73.6396 25.5396V27.331C73.5191 27.3748 73.3876 27.4186 73.2452 27.4625C73.1247 27.4953 72.9768 27.5227 72.8015 27.5446C72.6371 27.5665 72.4509 27.5775 72.2427 27.5775ZM77.4299 27.5775C77.0355 27.5775 76.6739 27.5172 76.3452 27.3967C76.0275 27.2652 75.7536 27.0954 75.5235 26.8872C75.2934 26.6791 75.1126 26.438 74.9811 26.1641C74.8606 25.8792 74.8003 25.5834 74.8003 25.2766C74.8003 24.6192 75.0195 24.0605 75.4577 23.6003C75.907 23.1401 76.4822 22.8498 77.1834 22.7292L79.8951 22.2362C79.8951 22.0938 79.8568 21.9513 79.7801 21.8089C79.7034 21.6555 79.5938 21.524 79.4514 21.4145C79.309 21.2939 79.1446 21.1953 78.9583 21.1186C78.7721 21.0419 78.5639 21.0036 78.3338 21.0036C78.027 21.0036 77.7531 21.0584 77.5121 21.1679C77.282 21.2665 77.0793 21.3761 76.904 21.4966C76.7068 21.6391 76.526 21.8034 76.3617 21.9897L75.2112 20.8392C75.4523 20.5325 75.7317 20.2585 76.0494 20.0175C76.3233 19.8093 76.652 19.6231 77.0355 19.4587C77.4299 19.2834 77.8901 19.1958 78.416 19.1958C78.909 19.1958 79.3583 19.2834 79.7637 19.4587C80.18 19.6231 80.5361 19.8531 80.8319 20.149C81.1387 20.4338 81.3743 20.7735 81.5386 21.1679C81.703 21.5514 81.7851 21.9623 81.7851 22.4005V27.4131H79.8951V26.3449H79.813C79.6596 26.575 79.4678 26.7831 79.2377 26.9694C79.0405 27.1228 78.794 27.2652 78.4982 27.3967C78.2023 27.5172 77.8463 27.5775 77.4299 27.5775ZM77.923 26.0162C78.1859 26.0162 78.4379 25.9669 78.679 25.8683C78.92 25.7587 79.1282 25.6108 79.3035 25.4245C79.4897 25.2383 79.6322 25.0191 79.7308 24.7671C79.8403 24.5151 79.8951 24.2467 79.8951 23.9618V23.7153L78.0051 24.044C77.5121 24.1317 77.167 24.2577 76.9697 24.422C76.7835 24.5754 76.6903 24.7781 76.6903 25.0301C76.6903 25.2821 76.7999 25.5122 77.019 25.7204C77.2491 25.9176 77.5504 26.0162 77.923 26.0162ZM84.1727 15.9088H86.0627V27.4131H84.1727V15.9088ZM88.5221 15.9088H90.4121V27.4131H88.5221V15.9088ZM99.276 15.9088H101.577L106.096 27.4131H103.96L102.892 24.6192H97.9612L96.8929 27.4131H94.7564L99.276 15.9088ZM102.152 22.7292L100.426 18.2918L98.7008 22.7292H102.152ZM107.821 15.9088H112.588C113.157 15.9088 113.683 16.0074 114.165 16.2046C114.658 16.3909 115.075 16.6538 115.414 16.9935C115.765 17.3331 116.039 17.7331 116.236 18.1932C116.433 18.6534 116.532 19.1519 116.532 19.6888C116.532 20.2257 116.433 20.7242 116.236 21.1844C116.039 21.6445 115.765 22.0445 115.414 22.3841C115.075 22.7238 114.658 22.9922 114.165 23.1894C113.683 23.3757 113.157 23.4688 112.588 23.4688H109.876V27.4131H107.821V15.9088ZM112.505 21.5788C112.768 21.5788 113.015 21.5295 113.245 21.4309C113.475 21.3323 113.672 21.2008 113.837 21.0365C114.012 20.8611 114.149 20.6585 114.247 20.4284C114.346 20.1983 114.395 19.9518 114.395 19.6888C114.395 19.4258 114.346 19.1793 114.247 18.9492C114.149 18.7191 114.012 18.5219 113.837 18.3576C113.672 18.1823 113.475 18.0453 113.245 17.9467C113.015 17.8481 112.768 17.7988 112.505 17.7988H109.876V21.5788H112.505ZM118.751 15.9088H120.806V21.2501L125.736 15.9088H128.283L123.928 20.6749L128.612 27.4131H126.147L122.531 22.154L120.806 24.044V27.4131H118.751V15.9088Z" fill="white"/>
</svg>
