<svg width="144" height="42" viewBox="0 0 144 42" fill="none" xmlns="http://www.w3.org/2000/svg">
<rect width="143.217" height="42" rx="5.47826" fill="white"/>
<path d="M27.5312 20.1318L21.7656 25.8974C21.4375 26.2255 20.9688 26.413 20.5 26.413C19.9844 26.413 19.5156 26.2255 19.1875 25.8974L13.4219 20.1318C13.1406 19.8505 13 19.4286 13 19.0068C13 18.163 13.7031 17.413 14.5469 17.413H17.5V11.413C17.5 10.6161 18.1562 9.91302 19 9.91302H22C22.7969 9.91302 23.5 10.6161 23.5 11.413V17.413H26.4062C27.25 17.413 28 18.163 28 19.0068C28 19.4286 27.8125 19.8505 27.5312 20.1318ZM13 26.413V29.413C13 30.2568 13.6562 30.913 14.5 30.913H26.5C27.2969 30.913 28 30.2568 28 29.413V26.413C28 25.6161 28.6562 24.913 29.5 24.913C30.2969 24.913 31 25.6161 31 26.413V29.413C31 31.8974 28.9844 33.913 26.5 33.913H14.5C12.0156 33.913 10 31.8974 10 29.413V26.413C10 25.6161 10.6562 24.913 11.5 24.913C12.2969 24.913 13 25.6161 13 26.413Z" fill="#030405"/>
<path d="M47.1699 15.9087H49.2243V27.413H47.1699V15.9087ZM51.9431 19.36H53.8331V20.5104H53.9153C54.0906 20.2694 54.2933 20.0502 54.5234 19.853C54.7206 19.6887 54.9671 19.5408 55.2629 19.4093C55.5587 19.2669 55.9039 19.1956 56.2983 19.1956C56.7256 19.1956 57.1255 19.2778 57.4981 19.4422C57.8706 19.5955 58.1938 19.8202 58.4677 20.116C58.7416 20.4118 58.9553 20.7734 59.1087 21.2007C59.2621 21.628 59.3387 22.1101 59.3387 22.6469V27.413H57.4487V22.9099C57.4487 22.3182 57.2954 21.869 56.9886 21.5622C56.6927 21.2445 56.2983 21.0856 55.8053 21.0856C55.2246 21.0856 54.748 21.2719 54.3754 21.6444C54.0139 22.0169 53.8331 22.5155 53.8331 23.14V27.413H51.9431V19.36ZM64.1023 27.5774C63.5654 27.5774 63.0943 27.5007 62.6889 27.3473C62.2944 27.1939 61.9548 27.0241 61.6699 26.8378C61.3412 26.6296 61.0564 26.3831 60.8153 26.0982L62.0479 24.8656C62.2123 25.0519 62.3985 25.2162 62.6067 25.3587C62.793 25.4792 63.0066 25.5942 63.2477 25.7038C63.4997 25.8024 63.7845 25.8517 64.1023 25.8517C64.5186 25.8517 64.8254 25.7695 65.0226 25.6052C65.2308 25.4409 65.3349 25.2491 65.3349 25.03C65.3349 24.8547 65.2308 24.7122 65.0226 24.6027C64.8144 24.4931 64.557 24.389 64.2502 24.2904C63.9434 24.1918 63.6037 24.0822 63.2312 23.9617C62.8697 23.8412 62.5355 23.6878 62.2287 23.5015C61.9219 23.3153 61.6644 23.0742 61.4563 22.7784C61.2481 22.4826 61.144 22.1101 61.144 21.6609C61.144 21.3322 61.2097 21.0199 61.3412 20.7241C61.4837 20.4282 61.6864 20.1653 61.9493 19.9352C62.2123 19.7051 62.53 19.5243 62.9025 19.3928C63.286 19.2614 63.7133 19.1956 64.1844 19.1956C64.6775 19.1956 65.1048 19.2614 65.4664 19.3928C65.8389 19.5243 66.1511 19.6668 66.4031 19.8202C66.688 20.0064 66.9345 20.2091 67.1427 20.4282L65.9101 21.6609C65.7786 21.5403 65.6252 21.4308 65.4499 21.3322C65.2965 21.2445 65.1103 21.1678 64.8911 21.1021C64.683 21.0363 64.4474 21.0035 64.1844 21.0035C63.8119 21.0035 63.538 21.0747 63.3627 21.2171C63.1984 21.3486 63.1162 21.4965 63.1162 21.6609C63.1162 21.8362 63.2203 21.9786 63.4284 22.0882C63.6366 22.1977 63.8941 22.3018 64.2009 22.4004C64.5077 22.499 64.8418 22.6086 65.2034 22.7291C65.5759 22.8496 65.9156 23.003 66.2224 23.1893C66.5291 23.3755 66.7866 23.6166 66.9948 23.9124C67.203 24.2082 67.3071 24.5808 67.3071 25.03C67.3071 25.3696 67.2358 25.6929 67.0934 25.9996C66.951 26.3064 66.7428 26.5803 66.4689 26.8214C66.195 27.0515 65.8553 27.2377 65.4499 27.3802C65.0555 27.5116 64.6063 27.5774 64.1023 27.5774ZM72.2426 27.5774C71.4538 27.5774 70.8292 27.3418 70.3691 26.8707C69.9198 26.3886 69.6952 25.6929 69.6952 24.7835V21.3322H68.2161V19.5243H69.0378C69.3227 19.5243 69.5309 19.4586 69.6624 19.3271C69.7938 19.1847 69.8596 18.9491 69.8596 18.6204V16.9769H71.5852V19.5243H73.3931V21.3322H71.5852V24.5369C71.5852 24.9533 71.6784 25.2655 71.8646 25.4737C72.0618 25.6709 72.3248 25.7695 72.6535 25.7695C72.8945 25.7695 73.1191 25.7312 73.3273 25.6545C73.4369 25.6216 73.541 25.5833 73.6396 25.5395V27.3309C73.5191 27.3747 73.3876 27.4185 73.2451 27.4623C73.1246 27.4952 72.9767 27.5226 72.8014 27.5445C72.6371 27.5664 72.4508 27.5774 72.2426 27.5774ZM77.4299 27.5774C77.0354 27.5774 76.6739 27.5171 76.3452 27.3966C76.0274 27.2651 75.7535 27.0953 75.5234 26.8871C75.2933 26.6789 75.1125 26.4379 74.9811 26.164C74.8605 25.8791 74.8003 25.5833 74.8003 25.2765C74.8003 24.6191 75.0194 24.0603 75.4577 23.6002C75.9069 23.14 76.4821 22.8496 77.1833 22.7291L79.8951 22.2361C79.8951 22.0936 79.8567 21.9512 79.78 21.8088C79.7033 21.6554 79.5938 21.5239 79.4513 21.4143C79.3089 21.2938 79.1445 21.1952 78.9583 21.1185C78.772 21.0418 78.5639 21.0035 78.3338 21.0035C78.027 21.0035 77.7531 21.0582 77.512 21.1678C77.2819 21.2664 77.0792 21.376 76.9039 21.4965C76.7067 21.6389 76.5259 21.8033 76.3616 21.9895L75.2112 20.8391C75.4522 20.5323 75.7316 20.2584 76.0493 20.0174C76.3232 19.8092 76.6519 19.6229 77.0354 19.4586C77.4299 19.2833 77.89 19.1956 78.4159 19.1956C78.909 19.1956 79.3582 19.2833 79.7636 19.4586C80.1799 19.6229 80.536 19.853 80.8319 20.1488C81.1386 20.4337 81.3742 20.7734 81.5385 21.1678C81.7029 21.5513 81.7851 21.9622 81.7851 22.4004V27.413H79.8951V26.3448H79.8129C79.6595 26.5749 79.4678 26.783 79.2377 26.9693C79.0405 27.1227 78.7939 27.2651 78.4981 27.3966C78.2023 27.5171 77.8462 27.5774 77.4299 27.5774ZM77.9229 26.0161C78.1859 26.0161 78.4379 25.9668 78.6789 25.8682C78.9199 25.7586 79.1281 25.6107 79.3034 25.4244C79.4897 25.2382 79.6321 25.019 79.7307 24.767C79.8403 24.515 79.8951 24.2466 79.8951 23.9617V23.7152L78.0051 24.0439C77.512 24.1315 77.1669 24.2575 76.9697 24.4219C76.7834 24.5753 76.6903 24.778 76.6903 25.03C76.6903 25.282 76.7999 25.5121 77.019 25.7202C77.2491 25.9175 77.5504 26.0161 77.9229 26.0161ZM84.1726 15.9087H86.0626V27.413H84.1726V15.9087ZM88.522 15.9087H90.412V27.413H88.522V15.9087ZM99.2759 15.9087H101.577L106.096 27.413H103.96L102.892 24.6191H97.9611L96.8929 27.413H94.7564L99.2759 15.9087ZM102.152 22.7291L100.426 18.2917L98.7007 22.7291H102.152ZM107.821 15.9087H112.587C113.157 15.9087 113.683 16.0073 114.165 16.2045C114.658 16.3908 115.075 16.6537 115.414 16.9934C115.765 17.333 116.039 17.7329 116.236 18.1931C116.433 18.6533 116.532 19.1518 116.532 19.6887C116.532 20.2255 116.433 20.7241 116.236 21.1842C116.039 21.6444 115.765 22.0443 115.414 22.384C115.075 22.7236 114.658 22.9921 114.165 23.1893C113.683 23.3755 113.157 23.4687 112.587 23.4687H109.876V27.413H107.821V15.9087ZM112.505 21.5787C112.768 21.5787 113.015 21.5294 113.245 21.4308C113.475 21.3322 113.672 21.2007 113.836 21.0363C114.012 20.861 114.149 20.6583 114.247 20.4282C114.346 20.1982 114.395 19.9516 114.395 19.6887C114.395 19.4257 114.346 19.1792 114.247 18.9491C114.149 18.719 114.012 18.5218 113.836 18.3575C113.672 18.1822 113.475 18.0452 113.245 17.9466C113.015 17.848 112.768 17.7987 112.505 17.7987H109.876V21.5787H112.505ZM118.751 15.9087H120.805V21.25L125.736 15.9087H128.283L123.928 20.6748L128.612 27.413H126.147L122.531 22.1539L120.805 24.0439V27.413H118.751V15.9087Z" fill="#030405"/>
</svg>
